<?xml version="1.0" encoding="utf-8"?>
<!-- Generator: Adobe Illustrator 26.5.1, SVG Export Plug-In . SVG Version: 6.00 Build 0)  -->
<svg version="1.1" id="Layer_1" xmlns="http://www.w3.org/2000/svg" xmlns:xlink="http://www.w3.org/1999/xlink" x="0px" y="0px"
	 viewBox="0 0 100 100" style="enable-background:new 0 0 100 100;" xml:space="preserve">
<style type="text/css">
	.st0{fill:#FFFFFF;}
</style>
<g id="Group_7" transform="translate(412.78 -146.945)">
	<path id="Path_1" class="st0" d="M-348.7,233.2c0.4-1,0.7-1.7,0.9-2.4c0.5-2.3,2.2-4,4.5-4.5c1.4-0.3,2.8,0.2,3.6,1.3
		c0.9,1,1,2.4,0.4,3.6c-0.5,1.2-1.7,2-3,2c-0.8-0.1-1.6-0.3-2.3-0.4c-0.4-0.1-1.2-0.2-1.3,0c-0.3,0.5-0.5,1.1-0.3,1.7
		c0.9,1.9,2.7,2.8,4.6,3.4c0.3,0.1,0.8-0.4,1.2-0.6c1.2-1,2.9-1.1,4.3-0.2c1.3,0.8,1.9,2.4,1.5,3.9c-0.2,1-1,1.8-2,2.1
		c-3.1,1-5.9,0.1-8.6-1.5c-1.1-0.7-2.2-1.4-3.3-2.2c-0.6-0.4-0.9-0.4-1.3,0.2c-1.6,2-3.6,3.6-6.3,3.8c-1.2,0.2-2.5-0.2-3.5-0.9
		c-1.7-1.4-2-3.5-0.6-5.1c1.7-1.9,3.4-1.7,5.2-0.5c0.4,0.2,0.5,0.8,0.7,1.2c0.2,0.4,0.3,0.7,0.4,1.1c0.6-0.2,1.1-0.4,1.5-0.8
		c0.2-0.4,0.3-0.9,0.1-1.3c-1-1.5-2.2-2.9-3.4-4.1c-2-1.9-4.2-3.6-6.4-5.3c-0.3-0.2-0.7-0.2-1-0.1c-3.3,2.9-7,5.4-9.7,8.9
		c-0.8,1.1-0.7,2,0.4,2.4c0.4,0.3,1,0.2,1.3-0.3c0.1-0.1,0.1-0.2,0.1-0.4c0.4-1.6,2.1-2.6,3.8-2.2c0.1,0,0.1,0,0.2,0
		c1.7,0.4,2.7,1.8,2.7,3.8c-0.1,1.7-1.3,3.1-2.9,3.3c-2.2,0.4-4.6-0.2-6.3-1.7c-0.9-0.7-1.8-1.4-2.9-2.3c-0.8,0.5-2.1,1.4-3.4,2.3
		c-2.2,1.5-4.8,2.2-7.4,2.1c-1.8-0.1-2.8-0.8-3.3-2.4c-0.4-1.6,0.2-3.3,1.6-4.2c1.3-0.7,2.9-0.5,4,0.5c0.5,0.7,1.5,0.8,2.2,0.3
		c0,0,0,0,0,0c1.2-0.8,2.3-1.6,3.3-2.5c0.6-0.6,0.7-1.5,0.1-2.2c0,0,0,0,0,0c-0.6-0.8-1.2-0.3-1.8-0.1c-3,1.1-5.4-0.4-5.2-3.4
		c0.2-2,1.9-3.4,3.8-3.2c0.4,0,0.7,0.1,1.1,0.3c2,0.7,3.6,2.5,4,4.6c0.2,0.7,0.5,1.4,0.9,2.1l10.4-9.6
		c-13.2-12.2-29.3-16.2-46.7-17.3c5.6-0.9,11.4-1,17-0.4c6.1,0.6,12,2.1,17.6,4.4c4.7,2.1,9.1,4.7,13.3,7.7c2.4,1.8,2.3,1.8,4.8-0.1
		c4.9-3.8,10.5-6.8,16.4-8.9c7.2-2.6,14.9-3.7,22.5-3.5c2.8,0.1,5.6,0.4,8.3,0.7c-17.1,1.1-33.1,5.2-46.3,17.4L-348.7,233.2z"/>
	<path id="Path_2" class="st0" d="M-367.4,213.5c0.6-1.2,1.2-2.2,1.8-3.3c0.6-0.9,0.7-2.1,0.3-3.1c-0.2-0.4-0.2-0.9,0-1.3
		c0.7-1.5,0.5-3,0.4-4.5c0-1.3,0.4-2.7,0.5-4c0.2-5.7,0.3-11.5,0.3-17.2c0-2-0.2-3.9-0.4-5.9l-0.9,0.6l-0.5-0.9
		c-1.4,0.6-1.6,1.5-1.3,3c0.2,1.1-0.3,2.4-0.4,3.6l-0.3,0l-0.6-2.6l-0.3,0.1l-0.2,1.2h-0.1c0-0.7,0-1.5,0-2.2c0-0.5-0.1-0.9-0.3-1.4
		c-1-1.3-0.6-2.4,0.2-3.5c0.1-0.1,0.1-0.2,0.2-0.3c0-0.1,0-0.2,0-0.3l-1-0.3l1.6-2.3l-1.8,0.3l2-1.8l-0.7-0.6c1.3-0.8,1.2-2,0.6-3.4
		c-0.8,0.7-1.5,1.4-2.1,2.2c-0.7,1.2-0.9,2.8-1.8,3.7c-1.4,1.4-0.5,2.5-0.2,3.8c0,0.2,0,0.4-0.1,0.6l-1.3-0.3l-0.4,3.1l-1,0.2
		c-1.6-4.1-0.6-8.7,2.6-11.8c0.6-0.7,1.3-1.3,1.9-2c0.2-0.3,0.3-0.6,0.3-1c-0.4,0-0.9,0-1.2,0.2c-0.6,0.5-1,1.2-1.6,1.6
		c-0.6,0.3-1.1,0.7-1.5,1.2c-1.2,1.6-2.5,2.9-2.8,5c-0.1,0.4-0.9,0.8-1.3,1.2c-0.2,0.2-0.4,0.4-0.6,0.6c-1.3-0.5-1-1.7-0.7-2.7
		c0.2-1.1,0.6-2.1,1.1-3.1c1.4-2.4,3.5-4.2,6-5.3c0.8-0.4,1.4-0.9,2-1.5c-3.3-0.4-6.5-0.4-8.6,3.1c-0.3-2,0.8-4,2.7-4.8
		c2.8-1.1,5.7-1.7,8.7-0.6c0.1,0,0.3,0,0.4-0.1c-0.1-1.2-0.9-2.2-2.1-2.5c-1.1-0.2-2.2-0.3-3.3-0.3c-0.7,0.1-1.4,0.4-2.1,0.7
		c0.3-0.4,0.4-1.1,0.8-1.4c2-1.5,4.7-1.9,7.1-1c0.7,0.4,1.3,0.9,1.8,1.5c0.4,0.4,0.7,0.8,1,1.3l1.9-4.6l1.8,4.6
		c2.2-3.4,5.2-3.6,8.4-2.7c1,0.2,1.8,1.1,1.9,2.1c-2-1.5-6-0.3-7.4,2.3c0.6-0.1,1-0.2,1.4-0.3c2.8-0.5,5.7-0.1,8.2,1
		c1.9,0.7,2.9,2.7,2.5,4.6c-2.1-3.3-5.2-3.6-8.6-3c0.6,0.4,1.1,0.9,1.7,1.3c0.7,0.5,1.5,0.8,2.3,1.3c3.7,2.2,5.2,5.5,5.3,9.7
		c-1.6,0.2-2.3-0.9-2.7-1.8c-0.9-1.9-2-3.7-3.4-5.3c-0.9-1.1-2.4-1.8-3.6-2.7l-0.4,0.3c0.1,0.4,0.3,0.8,0.5,1.2
		c0.7,0.8,1.4,1.6,2.2,2.4c2.7,2.5,3.2,5.6,2.7,9c-0.1,0.7-0.3,1.5-0.5,2.3c-1.8-0.5-0.8-2.3-1.8-3.1l-0.9,0.2
		c-0.1-0.1-0.1-0.1-0.1-0.2c0.2-0.6,0.3-1.2,0.5-1.8c0.2-0.8,0.4-1.5-0.6-1.9c-0.1-0.1-0.2-0.4-0.3-0.6c-0.1-1.1-0.6-2.2-1.5-2.8
		c-0.7-0.5-1-1.7-1.4-2.4l-2,0.6l1.9,2.4l-1,0.5l2,1.7l-1.8-0.2l1.7,2.4c-1,0-1.1,0.4-0.8,1.1c0,0.1,0.1,0.2,0.1,0.3
		c0.3,1,0.9,1.8,0,2.9c-0.5,0.6-0.3,1.7-0.4,2.6l-0.7-0.4c-0.2,1-0.4,1.9-0.6,2.8l-0.4,0c-0.1-1.4-0.1-2.9,0-4.3
		c0.2-1.3-0.9-1.5-1.4-2.4l-0.7,0.9l-0.9-0.7c-0.1,0.3-0.1,0.6-0.2,0.9c-0.5,7.8-0.4,15.6,0.1,23.3c0.1,0.9,0.6,1.8,0.4,2.6
		c-0.3,1.7-0.4,3.3,0.5,4.9c0,0.1,0,0.2,0,0.4c-1.2,2.6,0.5,4.4,1.5,6.4c0.1,0.2,0.2,0.5,0.4,0.8L-367.4,213.5z"/>
</g>
</svg>
